# xmcd CD database file
#
# Track frame offsets:
# 150
# 18658
# 45029
# 62190
# 82073
# 100397
# 120863
# 143243
# 160981
# 178740
# 193454
# 215276
#
# Disc length: 3147 seconds
# Revision: 2
# Processed by: cddbd v1.5.2PL0 Copyright (c) Steve Scherf et al.
# Submitted via: MusicBin 0.4
#
DISCID=a70c490c
DTITLE=Jackie Greene - Giving Up The Ghost
DYEAR=2008
DGENRE=Rock
TTITLE0=Shaken
TTITLE1=Animal
TTITLE2=I Don't Live In A Dream
TTITLE3=Like A Ball and Chain
TTITLE4=Uphill Mountain
TTITLE5=Don't Let The Devil Take Your Mind
TTITLE6=Prayer For Spanish Harlem
TTITLE7=Downhearted
TTITLE8=Follow You
TTITLE9=Another Love Gone Bad
TTITLE10=When You Return
TTITLE11=Ghosts of Promised Lands
EXTD=
EXTT0=
EXTT1=
EXTT2=
EXTT3=
EXTT4=
EXTT5=
EXTT6=
EXTT7=
EXTT8=
EXTT9=
EXTT10=
EXTT11=
PLAYORDER=
